<?xml version="1.0" encoding="UTF-8" standalone="no"?>
<!-- Created with Inkscape (http://www.inkscape.org/) -->

<svg
   xmlns:dc="http://purl.org/dc/elements/1.1/"
   xmlns:cc="http://creativecommons.org/ns#"
   xmlns:rdf="http://www.w3.org/1999/02/22-rdf-syntax-ns#"
   xmlns:svg="http://www.w3.org/2000/svg"
   xmlns="http://www.w3.org/2000/svg"
   xmlns:sodipodi="http://sodipodi.sourceforge.net/DTD/sodipodi-0.dtd"
   xmlns:inkscape="http://www.inkscape.org/namespaces/inkscape"
   width="500"
   height="500"
   viewBox="0 0 68.75 68.75"
   id="svg3965"
   version="1.1"
   inkscape:version="0.92.1 r"
   sodipodi:docname="nectar-logo.svg">
  <defs
     id="defs3967" />
  <sodipodi:namedview
     id="base"
     pagecolor="#ffffff"
     bordercolor="#666666"
     borderopacity="1.0"
     inkscape:pageopacity="0.0"
     inkscape:pageshadow="2"
     inkscape:zoom="0.7"
     inkscape:cx="-94.721051"
     inkscape:cy="236.70345"
     inkscape:document-units="px"
     inkscape:current-layer="layer1"
     showgrid="false"
     fit-margin-top="0"
     fit-margin-left="0"
     fit-margin-right="0"
     fit-margin-bottom="0"
     units="mm"
     inkscape:window-width="1440"
     inkscape:window-height="836"
     inkscape:window-x="0"
     inkscape:window-y="27"
     inkscape:window-maximized="1"
     scale-x="0.1375" />
  <metadata
     id="metadata3970">
    <rdf:RDF>
      <cc:Work
         rdf:about="">
        <dc:format>image/svg+xml</dc:format>
        <dc:type
           rdf:resource="http://purl.org/dc/dcmitype/StillImage" />
        <dc:title />
      </cc:Work>
    </rdf:RDF>
  </metadata>
  <g
     inkscape:label="Layer 1"
     inkscape:groupmode="layer"
     id="layer1"
     transform="translate(-305.54893,-78.942836)">
    <g
       id="g4882"
       transform="matrix(0.79825875,0,0,0.79825875,54.5341,-263.19934)">
      <path
         inkscape:connector-curvature="0"
         id="path334"
         style="fill:#ffc000;fill-opacity:1;fill-rule:nonzero;stroke:none"
         d="m 359.2618,461.34153 -6.59125,-11.41625 c -0.07,-0.1025 -0.375,-0.2775 -0.505,-0.28875 H 338.9868 c -0.13125,0.0125 -0.4325,0.18625 -0.50625,0.295 l -6.59125,11.415 c -0.0537,0.11375 -0.0537,0.465 0.002,0.58375 l 6.5925,11.41375 c 0.07,0.10375 0.375,0.27875 0.505,0.28875 h 13.1825 c 0.12375,-0.01 0.42875,-0.185 0.5025,-0.2925 l 0.29625,-0.51375 c 0.0225,-0.0437 0.04,-0.0925 0.065,-0.135 l 6.24,-10.80875 c 0.04,-0.13625 0.0387,-0.43375 -0.0138,-0.54125" />
      <path
         inkscape:connector-curvature="0"
         id="path338"
         style="fill:#ffc000;fill-opacity:1;fill-rule:nonzero;stroke:none"
         d="M 383.05505,446.31865 376.4613,434.8974 c -0.16875,-0.2925 -0.725,-0.61375 -1.06375,-0.61375 h -13.1875 c -0.33875,0 -0.89625,0.32125 -1.06375,0.61375 l -6.59375,11.42125 c -0.17,0.2925 -0.17,0.935 0,1.2275 l 6.59375,11.42125 c 0.16875,0.2925 0.725,0.61375 1.06375,0.61375 h 13.1875 c 0.33875,0 0.895,-0.32125 1.06375,-0.61375 l 6.59375,-11.42125 c 0.16875,-0.2925 0.16875,-0.935 0,-1.2275" />
      <path
         inkscape:connector-curvature="0"
         id="path342"
         style="fill:#ffc000;fill-opacity:1;fill-rule:nonzero;stroke:none"
         d="M 375.72955,462.37752 H 362.5508 c -0.13125,0.0125 -0.4325,0.18625 -0.5075,0.29375 l -0.29625,0.51625 c -0.0225,0.0437 -0.04,0.0912 -0.065,0.1325 l -6.23875,10.8075 c -0.0413,0.13625 -0.04,0.43375 0.0125,0.5425 l 6.59125,11.41625 c 0.0712,0.1025 0.37625,0.27875 0.50625,0.28875 h 13.18125 c 0.125,-0.01 0.43,-0.18625 0.50375,-0.29375 l 6.59125,-11.41625 c 0.0525,-0.1125 0.0525,-0.465 -0.004,-0.5825 l -6.59125,-11.415 c -0.07,-0.10375 -0.375,-0.28 -0.505,-0.29" />
    </g>
    <g
       id="g34"
       transform="translate(-5e-6)">
      <path
         inkscape:connector-curvature="0"
         id="path372"
         style="fill:#231f20;fill-opacity:1;fill-rule:nonzero;stroke:none;stroke-width:0.79825872"
         d="m 314.8168,132.78892 c -1.13154,0 -2.1603,0.36719 -2.86775,1.01378 v -0.84316 h -2.5624 v 10.85832 h 2.5624 v -6.79319 c 0.40112,-1.16445 1.23731,-1.77911 2.42072,-1.77911 1.50273,0 2.31396,1.17044 2.31396,2.27104 v 6.30126 h 2.56241 v -6.34416 c 0,-2.84579 -1.73822,-4.68478 -4.42934,-4.68478" />
      <path
         inkscape:connector-curvature="0"
         id="path376"
         style="fill:#231f20;fill-opacity:1;fill-rule:nonzero;stroke:none;stroke-width:0.79825872"
         d="m 326.19157,132.78931 c -3.16908,0 -5.55787,2.40675 -5.55787,5.59978 0,3.19205 2.40774,5.59979 5.59979,5.59979 1.75317,0 3.40657,-0.70646 4.42435,-1.88987 l 0.0648,-0.0748 -1.72424,-1.84298 -0.0819,0.0907 c -0.39414,0.43904 -1.26624,1.17644 -2.68315,1.17644 -1.49474,0 -2.65621,-0.92299 -2.93061,-2.30996 h 8.08437 v -0.75436 c -0.15167,-3.45048 -2.14133,-5.59479 -5.19567,-5.59479 m -2.80588,4.31858 c 0.39513,-1.17145 1.43787,-1.94776 2.63526,-1.94776 1.35503,0 2.25408,0.69049 2.54345,1.94776 z" />
      <path
         inkscape:connector-curvature="0"
         id="path380"
         style="fill:#231f20;fill-opacity:1;fill-rule:nonzero;stroke:none;stroke-width:0.79825872"
         d="m 338.14261,135.28766 c 1.19041,0 1.95373,0.5927 2.38381,1.08962 l 0.0787,0.0907 1.75417,-1.80008 -0.0718,-0.0768 c -1.08463,-1.17944 -2.51751,-1.80207 -4.14496,-1.80207 -3.19203,0 -5.59978,2.40774 -5.59978,5.59977 0,3.19204 2.40775,5.59979 5.59978,5.59979 1.62745,0 3.06033,-0.62264 4.14496,-1.80207 l 0.0718,-0.0768 -1.75417,-1.80007 -0.0787,0.0907 c -0.43008,0.49792 -1.1934,1.08963 -2.38381,1.08963 -1.72324,0 -2.97351,-1.30416 -2.97351,-3.10123 0,-1.79709 1.25027,-3.10125 2.97351,-3.10125" />
      <path
         inkscape:connector-curvature="0"
         id="path384"
         style="fill:#231f20;fill-opacity:1;fill-rule:nonzero;stroke:none;stroke-width:0.79825872"
         d="m 350.26486,135.26651 0.56477,-2.30697 h -3.26387 v -3.25888 l -2.56241,1.25825 v 2.00063 h -2.09444 l 0.56477,2.30697 h 1.52967 v 5.20764 c 0,2.09343 1.25825,3.34371 3.36665,3.34371 h 2.17426 v -2.36984 h -1.57956 c -1.18941,0 -1.39894,-0.47197 -1.39894,-1.4638 v -4.71771 z" />
      <path
         inkscape:connector-curvature="0"
         id="path388"
         style="fill:#231f20;fill-opacity:1;fill-rule:nonzero;stroke:none;stroke-width:0.79825872"
         d="m 359.68881,133.63388 c -0.77132,-0.55381 -1.71325,-0.84516 -2.74002,-0.84516 -3.18006,0 -5.57783,2.40774 -5.57783,5.59978 0,3.19303 2.39777,5.60079 5.57783,5.60079 1.04173,0 1.98367,-0.28438 2.74002,-0.82421 v 0.65357 h 2.56242 v -10.85931 h -2.56242 z m 0,2.9805 v 3.54925 c -0.57176,0.84516 -1.61049,1.36901 -2.71807,1.36901 -1.72323,0 -2.97351,-1.32212 -2.97351,-3.14414 0,-1.82103 1.25028,-3.14315 2.97351,-3.14315 1.10758,0 2.14631,0.52386 2.71807,1.36903" />
      <path
         inkscape:connector-curvature="0"
         id="path392"
         style="fill:#231f20;fill-opacity:1;fill-rule:nonzero;stroke:none;stroke-width:0.79825872"
         d="m 370.37042,132.87612 c -0.23948,-0.0429 -0.5039,-0.0658 -0.78628,-0.0658 -1.08065,0 -1.96472,0.34226 -2.63327,1.01579 V 132.96 h -2.5624 v 10.85831 h 2.5624 v -7.23122 c 0.53085,-0.98485 1.50372,-1.1934 2.22915,-1.1934 0.46797,0 0.85015,0.0489 1.13551,0.14369 l 0.14569,0.0489 v -2.69313 l -0.0907,-0.0169 z" />
    </g>
  </g>
</svg>
